<svg id="svg" version="1.1" xmlns="http://www.w3.org/2000/svg" xmlns:xlink="http://www.w3.org/1999/xlink" width="400" height="400" viewBox="0, 0, 400,400"><g id="svgg"><path id="path0" d="M42.734 55.801 C 26.525 58.869,19.281 69.799,28.897 76.678 C 39.675 84.389,55.345 85.428,68.749 79.320 C 77.846 75.174,78.800 74.217,78.800 69.241 L 78.800 65.283 77.468 64.114 C 74.762 61.737,65.655 57.571,60.000 56.122 C 56.719 55.282,46.483 55.091,42.734 55.801 M126.143 56.025 C 120.192 57.276,110.395 61.460,106.906 64.242 C 104.690 66.009,105.091 72.794,107.505 74.387 C 124.111 85.349,145.527 86.099,157.177 76.127 C 169.341 65.715,147.465 51.545,126.143 56.025 M255.800 55.836 C 236.378 59.258,230.934 71.580,245.514 79.122 C 258.633 85.908,275.189 84.188,290.700 74.430 L 292.000 73.612 292.000 69.231 L 292.000 64.851 288.500 62.886 C 276.212 55.987,266.647 53.924,255.800 55.836 M339.486 55.835 C 333.870 56.850,322.645 61.667,319.844 64.264 C 318.800 65.232,318.776 65.363,318.886 69.319 L 319.000 73.380 321.400 74.968 C 337.237 85.449,357.810 85.974,369.618 76.198 C 382.166 65.811,361.512 51.853,339.486 55.835 M89.000 62.354 C 84.252 64.538,83.929 71.515,88.425 74.772 C 93.334 78.328,99.719 74.344,99.077 68.127 C 98.536 62.882,93.777 60.156,89.000 62.354 M301.932 62.411 C 295.664 65.722,298.326 76.000,305.451 76.000 C 309.848 76.000,312.200 73.562,312.200 69.002 C 312.200 63.127,306.952 59.759,301.932 62.411 M81.800 85.367 C 81.140 85.662,80.060 86.476,79.400 87.177 L 78.200 88.451 78.200 95.325 L 78.200 102.200 93.325 102.200 L 108.449 102.200 108.325 95.528 C 108.182 87.909,107.972 87.325,104.792 85.700 C 102.626 84.593,84.134 84.325,81.800 85.367 M293.800 85.268 C 290.051 86.611,288.945 89.648,289.391 97.374 L 289.669 102.200 304.825 102.200 L 319.981 102.200 320.241 100.469 C 321.150 94.405,319.881 88.065,317.375 86.153 L 315.864 85.000 305.432 84.919 C 298.797 84.868,294.563 84.995,293.800 85.268 M180.177 108.012 C 177.084 108.170,172.404 108.505,169.777 108.755 C 167.150 109.005,161.130 109.483,156.400 109.817 C 151.670 110.151,145.550 110.686,142.800 111.005 C 140.050 111.325,134.740 111.866,131.000 112.207 C 127.260 112.549,122.220 113.094,119.800 113.420 C 114.262 114.165,90.560 114.922,82.600 114.608 C 74.042 114.269,70.883 114.716,68.076 116.662 C 59.981 122.272,61.531 135.882,70.751 140.145 C 72.552 140.978,73.204 141.006,96.000 141.241 C 108.870 141.373,119.940 141.614,120.600 141.775 C 130.519 144.200,138.217 149.443,144.048 157.745 L 146.052 160.600 145.902 219.701 L 145.751 278.803 146.576 279.558 C 147.484 280.391,156.936 286.654,162.033 289.800 C 163.816 290.900,166.022 292.349,166.937 293.020 C 169.974 295.248,175.877 298.800,176.543 298.800 C 177.142 298.800,177.200 297.326,177.200 282.200 L 177.200 265.600 198.900 265.598 C 222.759 265.595,225.226 265.419,231.856 263.249 C 262.899 253.087,278.123 215.984,263.812 185.366 C 260.851 179.031,257.867 174.921,251.762 168.770 L 247.564 164.541 249.016 161.970 C 254.132 152.918,262.550 145.893,271.456 143.242 C 277.217 141.528,277.675 141.498,302.010 141.246 L 325.819 141.000 328.499 139.680 C 338.200 134.902,338.312 120.633,328.689 115.505 C 327.014 114.612,326.818 114.603,304.800 114.351 C 291.467 114.199,281.561 113.919,280.000 113.650 C 277.676 113.249,261.134 111.504,249.400 110.420 C 221.528 107.847,198.804 107.056,180.177 108.012 M208.200 141.267 C 222.863 144.421,227.631 162.762,216.828 174.456 L 214.136 177.369 217.325 178.675 C 242.835 189.117,243.809 225.270,218.800 233.443 C 216.088 234.329,179.549 234.829,178.002 234.001 C 177.167 233.554,177.165 233.493,177.282 214.076 L 177.400 194.600 178.721 191.608 C 181.421 185.496,187.397 179.578,192.701 177.765 C 192.757 177.746,191.497 176.386,189.900 174.743 C 175.300 159.710,187.783 136.875,208.200 141.267 M78.093 156.922 C 78.543 162.533,79.255 162.800,93.770 162.800 C 108.480 162.800,109.600 162.383,109.600 156.911 L 109.600 154.400 93.745 154.400 L 77.890 154.400 78.093 156.922 M200.200 155.025 C 195.104 157.600,197.461 166.000,203.279 166.000 C 208.797 166.000,211.182 159.325,206.981 155.637 C 205.353 154.208,202.352 153.937,200.200 155.025 M288.400 156.638 C 288.400 162.253,289.752 162.771,304.499 162.812 C 319.310 162.853,320.000 162.599,320.000 157.111 L 320.000 154.400 304.200 154.400 L 288.400 154.400 288.400 156.638 M72.852 178.624 C 72.409 179.188,71.845 180.673,71.598 181.924 C 71.351 183.176,70.903 185.100,70.601 186.200 C 70.000 188.394,68.544 197.445,67.931 202.800 C 67.360 207.789,67.347 228.764,67.913 232.600 C 70.989 253.459,73.589 262.059,81.761 278.400 C 91.980 298.833,107.807 316.824,125.801 328.463 C 127.340 329.459,129.770 331.029,131.200 331.952 C 152.673 345.813,182.982 352.767,211.478 350.369 C 284.792 344.201,338.301 278.699,331.016 204.040 C 330.032 193.963,327.958 182.867,326.389 179.295 L 325.641 177.591 309.564 177.695 L 293.486 177.800 292.688 178.869 L 291.890 179.938 293.940 186.269 C 319.939 266.546,244.152 340.682,165.262 312.146 C 114.203 293.677,88.194 238.467,105.415 185.107 C 107.042 180.066,107.046 180.020,105.971 178.654 L 105.142 177.600 89.400 177.600 L 73.658 177.600 72.852 178.624 M202.852 192.211 C 191.626 195.331,187.782 208.635,195.792 216.644 C 206.762 227.614,224.696 216.690,220.206 201.773 C 218.183 195.050,209.617 190.331,202.852 192.211 " stroke="none" fill="#f9fbfb" fill-rule="evenodd"></path><path id="path1" d="M0.000 200.000 L 0.000 400.000 200.000 400.000 L 400.000 400.000 400.000 200.000 L 400.000 0.000 200.000 0.000 L 0.000 0.000 0.000 200.000 M60.000 56.122 C 65.655 57.571,74.762 61.737,77.468 64.114 L 78.800 65.283 78.800 69.241 C 78.800 74.217,77.846 75.174,68.749 79.320 C 50.907 87.450,24.807 81.499,24.641 69.262 C 24.512 59.746,44.766 52.219,60.000 56.122 M141.630 55.845 C 160.831 59.127,166.904 71.607,152.863 78.928 C 139.440 85.928,122.404 84.222,107.505 74.387 C 105.091 72.794,104.690 66.009,106.906 64.242 C 115.147 57.671,130.540 53.949,141.630 55.845 M270.716 55.808 C 276.034 56.817,281.723 59.081,288.500 62.886 L 292.000 64.851 292.000 69.231 L 292.000 73.612 290.700 74.430 C 273.117 85.492,252.171 86.101,240.568 75.888 C 228.890 65.609,249.616 51.805,270.716 55.808 M353.871 55.632 C 370.320 57.906,378.620 68.746,369.618 76.198 C 357.810 85.974,337.237 85.449,321.400 74.968 L 319.000 73.380 318.886 69.319 C 318.750 64.432,318.793 64.372,324.758 61.276 C 334.971 55.975,343.868 54.250,353.871 55.632 M95.516 62.373 C 98.773 64.068,100.122 68.642,98.410 72.180 C 94.934 79.359,84.486 75.830,85.319 67.758 C 85.824 62.868,91.107 60.077,95.516 62.373 M308.752 62.421 C 312.328 64.431,313.539 70.107,311.079 73.332 C 306.760 78.995,297.999 75.365,298.524 68.130 C 298.909 62.824,304.207 59.867,308.752 62.421 M104.792 85.700 C 107.972 87.325,108.182 87.909,108.325 95.528 L 108.449 102.200 93.325 102.200 L 78.200 102.200 78.200 95.325 L 78.200 88.451 79.400 87.177 C 81.519 84.927,82.061 84.833,93.015 84.816 C 102.629 84.801,103.101 84.836,104.792 85.700 M317.375 86.153 C 319.881 88.065,321.150 94.405,320.241 100.469 L 319.981 102.200 304.825 102.200 L 289.669 102.200 289.391 97.374 C 288.715 85.666,289.833 84.798,305.432 84.919 L 315.864 85.000 317.375 86.153 M216.800 108.009 C 224.414 108.429,241.615 109.701,249.400 110.420 C 261.134 111.504,277.676 113.249,280.000 113.650 C 281.561 113.919,291.467 114.199,304.800 114.351 C 326.818 114.603,327.014 114.612,328.689 115.505 C 338.312 120.633,338.200 134.902,328.499 139.680 L 325.819 141.000 302.010 141.246 C 277.675 141.498,277.217 141.528,271.456 143.242 C 262.550 145.893,254.132 152.918,249.016 161.970 L 247.564 164.541 251.762 168.770 C 268.209 185.342,273.444 207.200,266.139 228.800 C 260.712 244.847,247.492 258.131,231.856 263.249 C 225.226 265.419,222.759 265.595,198.900 265.598 L 177.200 265.600 177.200 282.200 C 177.200 297.326,177.142 298.800,176.543 298.800 C 175.877 298.800,169.974 295.248,166.937 293.020 C 166.022 292.349,163.816 290.900,162.033 289.800 C 156.936 286.654,147.484 280.391,146.576 279.558 L 145.751 278.803 145.902 219.701 L 146.052 160.600 144.048 157.745 C 138.217 149.443,130.519 144.200,120.600 141.775 C 119.940 141.614,108.870 141.373,96.000 141.241 C 73.204 141.006,72.552 140.978,70.751 140.145 C 61.531 135.882,59.981 122.272,68.076 116.662 C 70.883 114.716,74.042 114.269,82.600 114.608 C 90.560 114.922,114.262 114.165,119.800 113.420 C 122.220 113.094,127.260 112.549,131.000 112.207 C 134.740 111.866,140.050 111.325,142.800 111.005 C 145.550 110.686,151.670 110.151,156.400 109.817 C 161.130 109.483,167.150 109.005,169.777 108.755 C 181.439 107.644,203.775 107.290,216.800 108.009 M200.139 140.826 C 183.764 143.653,178.059 162.551,189.900 174.743 C 191.497 176.386,192.757 177.746,192.701 177.765 C 187.397 179.578,181.421 185.496,178.721 191.608 L 177.400 194.600 177.282 214.076 C 177.165 233.493,177.167 233.554,178.002 234.001 C 179.549 234.829,216.088 234.329,218.800 233.443 C 243.809 225.270,242.835 189.117,217.325 178.675 L 214.136 177.369 216.828 174.456 C 230.143 160.042,218.992 137.572,200.139 140.826 M109.600 156.911 C 109.600 162.383,108.480 162.800,93.770 162.800 C 79.255 162.800,78.543 162.533,78.093 156.922 L 77.890 154.400 93.745 154.400 L 109.600 154.400 109.600 156.911 M206.981 155.637 C 211.182 159.325,208.797 166.000,203.279 166.000 C 197.461 166.000,195.104 157.600,200.200 155.025 C 202.352 153.937,205.353 154.208,206.981 155.637 M320.000 157.111 C 320.000 162.599,319.310 162.853,304.499 162.812 C 289.752 162.771,288.400 162.253,288.400 156.638 L 288.400 154.400 304.200 154.400 L 320.000 154.400 320.000 157.111 M105.971 178.654 C 107.046 180.020,107.042 180.066,105.415 185.107 C 79.216 266.285,153.817 340.349,233.597 312.366 C 283.968 294.699,310.858 238.507,293.940 186.269 L 291.890 179.938 292.688 178.869 L 293.486 177.800 309.564 177.695 L 325.641 177.591 326.389 179.295 C 327.958 182.867,330.032 193.963,331.016 204.040 C 338.301 278.699,284.792 344.201,211.478 350.369 C 182.982 352.767,152.673 345.813,131.200 331.952 C 129.770 331.029,127.340 329.459,125.801 328.463 C 107.807 316.824,91.980 298.833,81.761 278.400 C 73.589 262.059,70.989 253.459,67.913 232.600 C 67.347 228.764,67.360 207.789,67.931 202.800 C 68.544 197.445,70.000 188.394,70.601 186.200 C 70.903 185.100,71.351 183.176,71.598 181.924 C 71.845 180.673,72.409 179.188,72.852 178.624 L 73.658 177.600 89.400 177.600 L 105.142 177.600 105.971 178.654 M210.713 192.611 C 221.095 195.694,224.354 208.916,216.635 216.635 C 209.181 224.089,196.502 221.724,192.795 212.188 C 188.127 200.181,198.402 188.955,210.713 192.611 " stroke="none" fill="#113b4f" fill-rule="evenodd"></path></g></svg>