<svg id="svg" version="1.1" xmlns="http://www.w3.org/2000/svg" xmlns:xlink="http://www.w3.org/1999/xlink" width="400" height="400" viewBox="0, 0, 400,400"><g id="svgg"><path id="path0" d="M0.000 200.000 L 0.000 400.000 200.000 400.000 L 400.000 400.000 400.000 200.000 L 400.000 0.000 200.000 0.000 L 0.000 0.000 0.000 200.000 M86.272 83.802 C 91.251 84.746,99.924 88.455,102.274 90.644 C 103.694 91.966,103.539 97.663,102.051 98.840 C 91.598 107.106,73.438 108.013,63.275 100.777 C 51.977 92.732,68.613 80.452,86.272 83.802 M155.664 84.353 C 170.132 88.131,173.257 97.145,162.002 102.633 C 152.342 107.343,142.487 107.008,131.352 101.590 C 125.015 98.506,124.609 98.081,124.609 94.531 C 124.609 91.135,125.026 90.625,129.741 88.254 C 139.475 83.359,147.331 82.176,155.664 84.353 M259.570 84.349 C 261.442 84.824,264.968 86.283,268.359 87.987 L 274.023 90.833 274.134 94.573 L 274.246 98.313 269.633 100.697 C 255.385 108.061,240.186 107.474,232.354 99.256 C 223.818 90.299,242.556 80.035,259.570 84.349 M324.418 83.801 C 347.628 87.848,342.536 105.646,318.164 105.661 C 310.654 105.665,300.763 102.340,296.516 98.383 C 295.288 97.239,295.316 91.798,296.554 90.644 C 301.996 85.574,315.529 82.251,324.418 83.801 M116.252 89.027 C 118.928 90.242,120.196 93.746,118.998 96.613 C 117.654 99.830,113.754 101.044,110.937 99.121 C 104.954 95.037,109.688 86.046,116.252 89.027 M287.379 89.042 C 292.761 91.485,291.108 100.000,285.251 100.000 C 279.133 100.000,277.004 91.885,282.407 89.160 C 284.517 88.096,285.257 88.078,287.379 89.042 M123.820 107.715 C 126.450 109.036,126.953 110.380,126.953 116.073 L 126.953 121.094 114.648 121.094 L 102.344 121.094 102.344 116.172 C 102.344 107.508,102.984 107.032,114.648 107.032 C 121.307 107.032,122.662 107.133,123.820 107.715 M293.722 107.715 C 296.307 109.033,296.664 109.976,296.808 115.847 L 296.936 121.094 284.601 121.094 L 272.266 121.094 272.192 118.066 C 271.936 107.485,272.421 107.053,284.570 107.040 C 291.248 107.034,292.577 107.132,293.722 107.715 M223.633 126.336 C 234.506 127.109,261.872 129.734,265.039 130.308 C 265.684 130.425,274.385 130.640,284.375 130.787 L 302.539 131.055 304.301 132.090 C 311.372 136.248,310.963 147.615,303.612 151.235 C 301.765 152.145,301.678 152.149,282.422 152.377 C 261.313 152.627,260.175 152.744,254.557 155.228 C 248.877 157.740,242.259 163.994,239.473 169.484 L 238.605 171.194 242.199 174.796 C 267.000 199.646,256.606 242.093,223.518 251.084 L 219.727 252.114 200.879 252.253 L 182.031 252.391 182.031 265.649 C 182.031 277.305,181.959 278.906,181.432 278.906 C 180.874 278.906,174.841 275.060,162.137 266.602 L 156.856 263.086 156.977 215.622 L 157.098 168.158 155.488 165.747 C 152.299 160.971,146.118 155.989,141.268 154.284 C 136.098 152.467,134.511 152.344,116.255 152.344 C 97.275 152.344,96.859 152.299,94.046 149.981 C 89.605 146.321,89.105 137.358,93.133 133.636 C 95.625 131.333,96.909 131.063,104.882 131.166 C 113.550 131.279,132.099 130.634,136.328 130.073 C 143.745 129.089,167.369 126.927,178.906 126.177 C 182.451 125.946,186.143 125.694,187.109 125.617 C 191.188 125.290,215.706 125.773,223.633 126.336 M198.047 152.667 C 186.440 156.496,183.489 170.689,192.464 179.522 C 193.661 180.699,194.571 181.711,194.488 181.770 C 194.404 181.828,193.495 182.307,192.466 182.833 C 183.602 187.367,182.031 191.723,182.031 211.770 L 182.031 226.582 183.033 226.963 C 184.378 227.474,209.636 227.451,212.891 226.936 C 234.961 223.439,235.850 190.570,214.094 182.434 C 212.787 181.945,211.719 181.518,211.719 181.486 C 211.719 181.453,212.642 180.450,213.770 179.256 C 225.488 166.860,213.986 147.409,198.047 152.667 M127.734 164.952 C 127.734 169.435,126.493 169.922,115.058 169.922 C 103.943 169.922,102.920 169.529,102.460 165.079 L 102.234 162.891 114.984 162.891 L 127.734 162.891 127.734 164.952 M205.500 163.557 C 209.560 165.955,207.781 172.270,203.047 172.264 C 199.481 172.260,197.104 168.261,198.792 165.106 C 199.880 163.074,203.332 162.276,205.500 163.557 M296.875 164.952 C 296.875 169.494,295.796 169.922,284.356 169.922 C 272.703 169.922,271.484 169.451,271.484 164.952 L 271.484 162.891 284.180 162.891 L 296.875 162.891 296.875 164.952 M125.161 182.745 C 125.691 183.772,125.626 184.179,124.240 188.507 C 103.772 252.419,162.811 311.476,225.911 290.208 C 267.741 276.110,289.693 230.870,275.555 187.901 C 274.205 183.799,274.166 183.537,274.772 182.613 L 275.409 181.641 288.280 181.641 L 301.152 181.641 301.707 182.715 C 305.216 189.507,307.067 213.121,305.236 227.734 C 300.611 264.660,275.803 298.019,242.524 312.063 C 173.542 341.175,98.268 294.297,93.941 219.531 C 93.293 208.330,95.882 186.242,98.280 182.520 L 98.846 181.641 111.718 181.641 L 124.589 181.641 125.161 182.745 M210.827 194.396 C 221.881 199.989,217.587 216.484,205.078 216.484 C 195.158 216.484,189.984 204.192,196.812 196.849 C 200.484 192.900,205.972 191.940,210.827 194.396 " stroke="none" fill="#173d4f" fill-rule="evenodd"></path><path id="path1" d="M75.064 83.641 C 61.363 85.919,55.131 94.978,63.275 100.777 C 73.438 108.013,91.598 107.106,102.051 98.840 C 103.539 97.663,103.694 91.966,102.274 90.644 C 97.026 85.755,83.416 82.252,75.064 83.641 M141.406 83.942 C 135.922 85.158,127.600 88.771,125.541 90.829 C 124.134 92.237,124.164 96.856,125.590 98.282 C 126.823 99.514,135.232 103.631,138.867 104.781 C 150.838 108.569,168.750 102.542,168.750 94.727 C 168.750 87.366,153.354 81.293,141.406 83.942 M245.752 83.768 C 229.873 86.792,225.223 95.679,236.133 102.153 C 245.370 107.634,257.207 107.119,269.633 100.697 L 274.246 98.313 274.134 94.573 L 274.023 90.833 268.359 87.987 C 259.872 83.723,252.861 82.415,245.752 83.768 M312.500 83.810 C 307.331 84.919,298.753 88.595,296.554 90.644 C 295.316 91.798,295.288 97.239,296.516 98.383 C 297.843 99.620,306.216 103.766,309.375 104.751 C 319.365 107.865,335.645 103.888,338.932 97.531 C 343.170 89.336,326.668 80.770,312.500 83.810 M112.305 88.567 C 108.926 89.413,107.207 93.645,108.926 96.881 C 111.212 101.182,117.155 101.024,118.998 96.613 C 120.865 92.145,116.926 87.410,112.305 88.567 M282.407 89.160 C 277.004 91.885,279.133 100.000,285.251 100.000 C 291.108 100.000,292.761 91.485,287.379 89.042 C 285.257 88.078,284.517 88.096,282.407 89.160 M105.209 107.837 C 102.769 109.045,102.344 110.281,102.344 116.172 L 102.344 121.094 114.648 121.094 L 126.953 121.094 126.953 116.073 C 126.953 110.380,126.450 109.036,123.820 107.715 C 121.627 106.613,107.495 106.706,105.209 107.837 M275.124 107.790 C 272.486 108.988,272.013 110.648,272.192 118.066 L 272.266 121.094 284.601 121.094 L 296.936 121.094 296.808 115.847 C 296.664 109.976,296.307 109.033,293.722 107.715 C 291.656 106.662,277.484 106.719,275.124 107.790 M187.109 125.617 C 186.143 125.694,182.451 125.946,178.906 126.177 C 167.369 126.927,143.745 129.089,136.328 130.073 C 132.099 130.634,113.550 131.279,104.882 131.166 C 96.909 131.063,95.625 131.333,93.133 133.636 C 89.105 137.358,89.605 146.321,94.046 149.981 C 96.859 152.299,97.275 152.344,116.255 152.344 C 134.511 152.344,136.098 152.467,141.268 154.284 C 146.118 155.989,152.299 160.971,155.488 165.747 L 157.098 168.158 156.977 215.622 L 156.856 263.086 162.137 266.602 C 174.841 275.060,180.874 278.906,181.432 278.906 C 181.959 278.906,182.031 277.305,182.031 265.649 L 182.031 252.391 200.879 252.253 L 219.727 252.114 223.518 251.084 C 256.606 242.093,267.000 199.646,242.199 174.796 L 238.605 171.194 239.473 169.484 C 242.259 163.994,248.877 157.740,254.557 155.228 C 260.175 152.744,261.313 152.627,282.422 152.377 C 301.678 152.149,301.765 152.145,303.612 151.235 C 310.963 147.615,311.372 136.248,304.301 132.090 L 302.539 131.055 284.375 130.787 C 274.385 130.640,265.684 130.425,265.039 130.308 C 261.872 129.734,234.506 127.109,223.633 126.336 C 215.706 125.773,191.188 125.290,187.109 125.617 M209.096 153.087 C 219.514 157.170,221.919 170.636,213.770 179.256 C 212.642 180.450,211.719 181.453,211.719 181.486 C 211.719 181.518,212.787 181.945,214.094 182.434 C 235.850 190.570,234.961 223.439,212.891 226.936 C 209.636 227.451,184.378 227.474,183.033 226.963 L 182.031 226.582 182.031 211.770 C 182.031 191.723,183.602 187.367,192.466 182.833 C 193.495 182.307,194.404 181.828,194.488 181.770 C 194.571 181.711,193.661 180.699,192.464 179.522 C 179.681 166.942,192.492 146.579,209.096 153.087 M102.460 165.079 C 102.920 169.529,103.943 169.922,115.058 169.922 C 126.493 169.922,127.734 169.435,127.734 164.952 L 127.734 162.891 114.984 162.891 L 102.234 162.891 102.460 165.079 M200.542 163.508 C 197.481 165.018,197.464 169.645,200.513 171.504 C 204.687 174.049,209.315 169.886,207.220 165.472 C 206.096 163.102,203.132 162.231,200.542 163.508 M271.484 164.952 C 271.484 169.451,272.703 169.922,284.356 169.922 C 295.796 169.922,296.875 169.494,296.875 164.952 L 296.875 162.891 284.180 162.891 L 271.484 162.891 271.484 164.952 M98.280 182.520 C 95.882 186.242,93.293 208.330,93.941 219.531 C 98.268 294.297,173.542 341.175,242.524 312.063 C 275.803 298.019,300.611 264.660,305.236 227.734 C 307.067 213.121,305.216 189.507,301.707 182.715 L 301.152 181.641 288.280 181.641 L 275.409 181.641 274.772 182.613 C 274.166 183.537,274.205 183.799,275.555 187.901 C 289.693 230.870,267.741 276.110,225.911 290.208 C 162.811 311.476,103.772 252.419,124.240 188.507 C 125.626 184.179,125.691 183.772,125.161 182.745 L 124.589 181.641 111.718 181.641 L 98.846 181.641 98.280 182.520 M200.977 193.913 C 189.380 198.750,192.602 216.484,205.078 216.484 C 215.599 216.484,221.008 204.649,214.088 196.769 C 211.126 193.395,205.274 192.120,200.977 193.913 " stroke="none" fill="#fafbfb" fill-rule="evenodd"></path></g></svg>